<?xml version="1.0" encoding="iso-8859-1"?>
<!-- Uploaded to: SVG Repo, www.svgrepo.com, Generator: SVG Repo Mixer Tools -->
<svg height="800px" width="800px" version="1.1" id="Layer_1" xmlns="http://www.w3.org/2000/svg" xmlns:xlink="http://www.w3.org/1999/xlink" 
	 viewBox="0 0 512 512" xml:space="preserve">
<g transform="translate(1 1)">
	<g>
		<path style="fill:#FCC309;" d="M347.16,468.333H162.84c-1.707,0-2.56-2.56-0.853-3.413l15.36-11.093
			c16.213-11.947,24.747-33.28,19.627-53.76h116.053l0,0c-5.12,20.48,3.413,41.813,19.627,53.76l15.36,11.093
			C349.72,465.773,348.867,468.333,347.16,468.333"/>
		<path style="fill:#FCC309;" d="M353.133,493.933H156.867c-6.827,0-12.8-5.973-12.8-12.8s5.973-12.8,12.8-12.8h196.267
			c6.827,0,12.8,5.973,12.8,12.8S359.96,493.933,353.133,493.933"/>
		<path style="fill:#FCC309;" d="M472.6,400.067H37.4c-16.213,0-29.867-13.653-29.867-29.867v-46.933h494.933V370.2
			C502.467,386.413,488.813,400.067,472.6,400.067"/>
	</g>
	<path style="fill:#FFDD09;" d="M476.867,323.267H33.133V45.933c0-16.213,13.653-29.867,29.867-29.867h384
		c16.213,0,29.867,13.653,29.867,29.867V323.267z"/>
	<path style="fill:#FFFFFF;" d="M63,16.067H37.4c-16.213,0-29.867,13.653-29.867,29.867v328.533c0,14.507,11.093,25.6,25.6,25.6
		V45.933C33.133,29.72,46.787,16.067,63,16.067"/>
	<path style="fill:#FD9808;" d="M472.6,16.067H447c16.213,0,29.867,13.653,29.867,29.867v354.133h2.56
		c12.8,0,23.04-10.24,23.04-23.04V45.933C502.467,29.72,488.813,16.067,472.6,16.067"/>
	<path style="fill:#54C9FD;" d="M237.933,84.333c-46.933,0-85.333,38.4-85.333,85.333S191,255,237.933,255
		c13.653,0,25.6-3.413,37.547-8.533l-37.547-76.8V84.333z"/>
	<path style="fill:#1CD759;" d="M306.2,229.4h2.56c28.16-13.653,48.64-42.667,48.64-76.8c0-46.933-38.4-85.333-85.333-85.333v93.867
		L306.2,229.4z"/>
	<path d="M237.933,263.533c-52.053,0-93.867-41.813-93.867-93.867S185.88,75.8,237.933,75.8c5.12,0,8.533,3.413,8.533,8.533v83.627
		l36.693,75.093c1.707,4.267,0,9.387-4.267,11.093C266.093,260.12,252.44,263.533,237.933,263.533z M229.4,93.72
		c-38.4,4.267-68.267,36.693-68.267,75.947c0,42.667,34.133,76.8,76.8,76.8c8.533,0,17.067-1.707,25.6-4.267l-33.28-69.12
		c-0.853-0.853-0.853-1.707-0.853-3.413V93.72z"/>
	<path d="M308.76,237.933h-2.56c-3.413,0-5.973-1.707-7.68-5.12l-34.133-68.267c-0.853-0.853-0.853-1.707-0.853-3.413V67.267
		c0-5.12,3.413-8.533,8.533-8.533c52.053,0,93.867,41.813,93.867,93.867c0,36.693-20.48,68.267-52.907,84.48
		C311.32,237.933,310.467,237.933,308.76,237.933z M280.6,159.427l29.867,59.733c23.893-13.653,38.4-38.4,38.4-66.56
		c0-39.253-29.867-71.68-68.267-75.947V159.427z"/>
	<path d="M347.16,476.867H162.84c-4.267,0-8.533-2.56-10.24-7.68c-1.707-4.267,0-9.387,4.267-11.947l15.36-11.093
		c13.653-9.387,20.48-27.307,16.213-44.373l-2.56-10.24h140.8l-5.973,11.093c-3.413,17.067,2.56,34.133,16.213,43.52l15.36,11.093
		c3.413,2.56,5.12,7.68,4.267,11.947C355.693,474.307,351.427,476.867,347.16,476.867z M342.893,471.747L342.893,471.747
		L342.893,471.747z M167.107,471.747L167.107,471.747L167.107,471.747z M183.32,459.8h142.507
		c-15.36-11.947-24.747-31.573-23.04-51.2h-95.573C208.067,428.227,199.533,447.853,183.32,459.8z"/>
	<path d="M472.6,408.6H37.4C16.067,408.6-1,391.533-1,370.2v-55.467h512V370.2C511,391.533,493.933,408.6,472.6,408.6z
		 M16.067,331.8v38.4c0,11.947,9.387,21.333,21.333,21.333h435.2c11.947,0,21.333-9.387,21.333-21.333v-38.4H16.067z"/>
	<path d="M511,331.8H-1V45.933c0-21.333,17.067-38.4,38.4-38.4h435.2c21.333,0,38.4,17.067,38.4,38.4V331.8z M16.067,314.733
		h477.867v-268.8c0-11.947-9.387-21.333-21.333-21.333H37.4c-11.947,0-21.333,9.387-21.333,21.333V314.733z"/>
	<path d="M353.133,502.467H156.867c-11.947,0-21.333-9.387-21.333-21.333s9.387-21.333,21.333-21.333h196.267
		c11.947,0,21.333,9.387,21.333,21.333S365.08,502.467,353.133,502.467z M156.867,476.867c-2.56,0-4.267,1.707-4.267,4.267
		s1.707,4.267,4.267,4.267h196.267c2.56,0,4.267-1.707,4.267-4.267s-1.707-4.267-4.267-4.267H156.867z"/>
	<path d="M127,67.267H84.333c-5.12,0-8.533-3.413-8.533-8.533s3.413-8.533,8.533-8.533H127c5.12,0,8.533,3.413,8.533,8.533
		S132.12,67.267,127,67.267z"/>
	<path d="M50.2,67.267h-8.533c-5.12,0-8.533-3.413-8.533-8.533s3.413-8.533,8.533-8.533H50.2c5.12,0,8.533,3.413,8.533,8.533
		S55.32,67.267,50.2,67.267z"/>
	<path d="M75.8,101.4H41.667c-5.12,0-8.533-3.413-8.533-8.533s3.413-8.533,8.533-8.533H75.8c5.12,0,8.533,3.413,8.533,8.533
		S80.92,101.4,75.8,101.4z"/>
	<path d="M127,101.4h-17.067c-5.12,0-8.533-3.413-8.533-8.533s3.413-8.533,8.533-8.533H127c5.12,0,8.533,3.413,8.533,8.533
		S132.12,101.4,127,101.4z"/>
	<path d="M468.333,255h-42.667c-5.12,0-8.533-3.413-8.533-8.533c0-5.12,3.413-8.533,8.533-8.533h42.667
		c5.12,0,8.533,3.413,8.533,8.533C476.867,251.587,473.453,255,468.333,255z"/>
	<path d="M391.533,255H383c-5.12,0-8.533-3.413-8.533-8.533c0-5.12,3.413-8.533,8.533-8.533h8.533c5.12,0,8.533,3.413,8.533,8.533
		C400.067,251.587,396.653,255,391.533,255z"/>
	<path d="M417.133,289.133H383c-5.12,0-8.533-3.413-8.533-8.533c0-5.12,3.413-8.533,8.533-8.533h34.133
		c5.12,0,8.533,3.413,8.533,8.533C425.667,285.72,422.253,289.133,417.133,289.133z"/>
	<path d="M468.333,289.133h-17.067c-5.12,0-8.533-3.413-8.533-8.533c0-5.12,3.413-8.533,8.533-8.533h17.067
		c5.12,0,8.533,3.413,8.533,8.533C476.867,285.72,473.453,289.133,468.333,289.133z"/>
	<path d="M425.667,118.467c-5.12,0-8.533-3.413-8.533-8.533v-51.2c0-5.12,3.413-8.533,8.533-8.533s8.533,3.413,8.533,8.533v51.2
		C434.2,115.053,430.787,118.467,425.667,118.467z"/>
	<path d="M451.267,92.867h-51.2c-5.12,0-8.533-3.413-8.533-8.533s3.413-8.533,8.533-8.533h51.2c5.12,0,8.533,3.413,8.533,8.533
		C459.8,89.453,456.387,92.867,451.267,92.867z"/>
	<path d="M58.733,289.133c-2.56,0-4.267-0.853-5.973-2.56c-3.413-3.413-3.413-8.533,0-11.947l51.2-51.2
		c3.413-3.413,8.533-3.413,11.947,0s3.413,8.533,0,11.947l-51.2,51.2C63,288.28,61.293,289.133,58.733,289.133z"/>
	<path d="M109.933,289.133c-2.56,0-4.267-0.853-5.973-2.56l-51.2-51.2c-3.413-3.413-3.413-8.533,0-11.947
		c3.413-3.413,8.533-3.413,11.947,0l51.2,51.2c3.413,3.413,3.413,8.533,0,11.947C114.2,288.28,112.493,289.133,109.933,289.133z"/>
</g>
</svg>